<svg id="d2efe429-c438-4cb7-82af-e4ccd116e2a8" data-name="Layer 1" xmlns="http://www.w3.org/2000/svg" viewBox="0 0 713.3 633.1"><defs><style>.\36 1d4cb56-70ab-4acc-8f38-ca1d6c7615c7,.\38 d73ebb4-0e37-4094-a242-6f37bece2db4,.caa463e6-ac0a-4708-8bc8-51d961e541e0{fill:#444;}.\38 d73ebb4-0e37-4094-a242-6f37bece2db4{stroke:#fff;stroke-width:2.83px;}.\36 1d4cb56-70ab-4acc-8f38-ca1d6c7615c7,.\38 d73ebb4-0e37-4094-a242-6f37bece2db4{stroke-miterlimit:10;}.\36 1d4cb56-70ab-4acc-8f38-ca1d6c7615c7{stroke:#000;stroke-width:0.71px;}</style></defs><title>icon-logoonly-grey</title><path class="caa463e6-ac0a-4708-8bc8-51d961e541e0" d="M115.65,236.95a15,15,0,0,0,15-15V90.55h131.4a15,15,0,0,0,0-30H115.65a15,15,0,0,0-15,15v146.4A15,15,0,0,0,115.65,236.95Z"/><path class="caa463e6-ac0a-4708-8bc8-51d961e541e0" d="M597.65,60.55H451.25a15,15,0,0,0,0,30h131.4v131.4a15,15,0,0,0,30,0V75.55A15,15,0,0,0,597.65,60.55Z"/><path class="caa463e6-ac0a-4708-8bc8-51d961e541e0" d="M597.65,396.15a15,15,0,0,0-15,15v131.4H451.25a15,15,0,1,0,0,30h146.4a15,15,0,0,0,15-15V411.15A15,15,0,0,0,597.65,396.15Z"/><path class="caa463e6-ac0a-4708-8bc8-51d961e541e0" d="M262.05,542.55H130.65V411.15a15,15,0,0,0-30,0v146.4a15,15,0,0,0,15,15h146.4a15,15,0,1,0,0-30Z"/><path class="8d73ebb4-0e37-4094-a242-6f37bece2db4" d="M384.55,182.55l-47.9-44.9a188.51,188.51,0,0,1,20-1.1,180,180,0,0,1,179.4,165.2c.1,1.2-5.4,1.9-5.9,2.4l-47.4,47.4L440.45,307a84.42,84.42,0,0,0-83.8-74.8,89.21,89.21,0,0,0-11.6.8l39.8-42.5a5.68,5.68,0,0,0-.3-8Zm-163,174.3a5.72,5.72,0,0,1,4.2-1.1l61.5,8.6a83.78,83.78,0,0,1-14.8-47.8c0-34.2,12.9-72,42.1-85.2a28.1,28.1,0,0,0,4.9-3.5l52-40.9L324,141a12.69,12.69,0,0,1-1.1-1.3,180.11,180.11,0,0,0-112.2,282.2l8.6-61.4a6.06,6.06,0,0,1,2.3-3.7Zm269.7,8.8a5.51,5.51,0,0,1-4,1.6,6,6,0,0,1-4-1.6l-42.5-42.5a84.33,84.33,0,0,1-143,53.8,4.84,4.84,0,0,1-1.7,0l-67.6-9.5-8.1,66.6-1.2-.1a182.34,182.34,0,0,0,137.5,62.6c98.1,0,177.9-78.6,180-176.2Z"/><path class="61d4cb56-70ab-4acc-8f38-ca1d6c7615c7" d="M347.25,352.25a5.91,5.91,0,0,0,4.6-2.6l37.4-60.3a5.59,5.59,0,0,0-9.5-5.9l-33,53.1-13.4-18.7a5.59,5.59,0,0,0-9.1,6.5l18.3,25.5a5.64,5.64,0,0,0,4.6,2.3c0,.2.1.2.1.1Z"/></svg>