<svg id="39152677-b120-403a-9702-3423103f8929" data-name="Layer 1" xmlns="http://www.w3.org/2000/svg" viewBox="0 0 56.69 56.69"><defs><style>.d91333c2-7093-40c7-9927-a6b4dcb3e03e{fill:#010101;}.\35 6db542e-bf75-4dfc-9fa5-8f972ffbe88f,.c1b759a7-e191-47bd-9f1c-e104073aa0e8{fill:#109953;stroke-miterlimit:10;}.\35 6db542e-bf75-4dfc-9fa5-8f972ffbe88f{stroke:#fff;stroke-width:1.42px;}.c1b759a7-e191-47bd-9f1c-e104073aa0e8{stroke:#010101;stroke-width:0.71px;}.\39 45731eb-c1c2-49d9-b73a-2ff706378086{fill:none;}</style></defs><title>rid-favicon</title><path class="d91333c2-7093-40c7-9927-a6b4dcb3e03e" d="M9.67,22.18A1.16,1.16,0,0,0,10.83,21V10.83H21A1.16,1.16,0,1,0,21,8.5H9.67A1.16,1.16,0,0,0,8.5,9.67V21A1.17,1.17,0,0,0,9.67,22.18Z"/><path class="d91333c2-7093-40c7-9927-a6b4dcb3e03e" d="M47,8.5H35.68a1.16,1.16,0,1,0,0,2.33H45.86V21a1.16,1.16,0,1,0,2.33,0V9.67A1.16,1.16,0,0,0,47,8.5Z"/><path class="d91333c2-7093-40c7-9927-a6b4dcb3e03e" d="M47,34.51a1.16,1.16,0,0,0-1.16,1.16V45.86H35.68a1.16,1.16,0,1,0,0,2.33H47A1.16,1.16,0,0,0,48.19,47V35.68A1.17,1.17,0,0,0,47,34.51Z"/><path class="d91333c2-7093-40c7-9927-a6b4dcb3e03e" d="M21,45.86H10.83V35.68a1.16,1.16,0,1,0-2.33,0V47a1.16,1.16,0,0,0,1.16,1.16H21a1.16,1.16,0,1,0,0-2.33Z"/><path class="56db542e-bf75-4dfc-9fa5-8f972ffbe88f" d="M30.51,18l-3.71-3.48a14.61,14.61,0,0,1,1.55-.09A14,14,0,0,1,42.25,27.2c0,.09-.42.15-.46.19l-3.67,3.67-3.28-3.45a6.54,6.54,0,0,0-6.5-5.8,6.92,6.92,0,0,0-.9.06l3.08-3.29a.44.44,0,0,0,0-.62ZM17.87,31.47a.44.44,0,0,1,.33-.09L23,32a6.49,6.49,0,0,1-1.15-3.7c0-2.65,1-5.58,3.26-6.6a2.18,2.18,0,0,0,.38-.27l4-3.17-3.68-3.56-.09-.1A14,14,0,0,0,17,36.51l.67-4.76a.47.47,0,0,1,.18-.29Zm20.9.68a.43.43,0,0,1-.31.12.46.46,0,0,1-.31-.12l-3.29-3.29A6.54,6.54,0,0,1,23.78,33h-.13l-5.24-.74-.63,5.16h-.09A14.13,14.13,0,0,0,28.34,42.3a14,14,0,0,0,14-13.66Z"/><path class="c1b759a7-e191-47bd-9f1c-e104073aa0e8" d="M27.62,31.11a.46.46,0,0,0,.36-.2l2.9-4.67a.43.43,0,0,0-.74-.46L27.58,29.9l-1-1.45a.43.43,0,0,0-.71.5l1.42,2a.44.44,0,0,0,.36.18s0,0,0,0Z"/><rect class="945731eb-c1c2-49d9-b73a-2ff706378086" x="-1187" y="-142.5" width="1755.2" height="406"/></svg>