<svg xmlns="http://www.w3.org/2000/svg" viewBox="0 0 2345.95 512"><defs><style>.\31 a6bfaea-1212-42da-bd62-4be52d24ff22,.\35 f1db7e8-516b-4d4e-b6c2-f0bde4cdff21,.\36 ce15ba2-eb78-4b5b-862f-bdf0cfdc47ab{fill:#0d9953;stroke-miterlimit:10;}.\35 f1db7e8-516b-4d4e-b6c2-f0bde4cdff21{stroke:#fff;stroke-width:2.83px;}.\31 a6bfaea-1212-42da-bd62-4be52d24ff22,.\36 ce15ba2-eb78-4b5b-862f-bdf0cfdc47ab{stroke:#000;}.\31 a6bfaea-1212-42da-bd62-4be52d24ff22{stroke-width:0.71px;}.\34 a1dee15-fd26-47a9-a8ff-a9a1bb6fd56f{isolation:isolate;}.\36 ce15ba2-eb78-4b5b-862f-bdf0cfdc47ab{stroke-width:1.42px;}</style></defs><title>Asset 6</title><g id="7e80420e-e87a-40dc-8b78-7de77ac25b0b" data-name="Layer 2"><g id="20e5e861-e436-4d27-81b1-cafaa64fd9a8" data-name="Layer 1"><path d="M1848.95,176.4a15,15,0,0,0,15-15V30h131.4a15,15,0,0,0,0-30h-146.4a15,15,0,0,0-15,15V161.4A15,15,0,0,0,1848.95,176.4Z"/><path d="M2330.95,0h-146.4a15,15,0,0,0,0,30h131.4V161.4a15,15,0,1,0,30,0V15A15,15,0,0,0,2330.95,0Z"/><path d="M2330.95,335.6a15,15,0,0,0-15,15V482h-131.4a15,15,0,0,0,0,30h146.4a15,15,0,0,0,15-15V350.6A15,15,0,0,0,2330.95,335.6Z"/><path d="M1995.35,482h-131.4V350.6a15,15,0,1,0-30,0V497a15,15,0,0,0,15,15h146.4a15,15,0,0,0,0-30Z"/><path class="5f1db7e8-516b-4d4e-b6c2-f0bde4cdff21" d="M2117.85,122l-47.9-44.9a188.51,188.51,0,0,1,20-1.1,180,180,0,0,1,179.4,165.2c.1,1.2-5.4,1.9-5.9,2.4L2216,291l-42.3-44.5a84.42,84.42,0,0,0-83.8-74.8,89.21,89.21,0,0,0-11.6.8l39.8-42.5a5.68,5.68,0,0,0-.3-8Zm-163,174.3a5.72,5.72,0,0,1,4.2-1.1l61.5,8.6a83.78,83.78,0,0,1-14.8-47.8c0-34.2,12.9-72,42.1-85.2a28.1,28.1,0,0,0,4.9-3.5l52-40.9-47.5-45.9a12.69,12.69,0,0,1-1.1-1.3,180.11,180.11,0,0,0-112.2,282.2l8.6-61.4a6.06,6.06,0,0,1,2.3-3.7Zm269.7,8.8a5.51,5.51,0,0,1-4,1.6,6,6,0,0,1-4-1.6L2174,262.6a84.33,84.33,0,0,1-143,53.8,4.84,4.84,0,0,1-1.7,0l-67.6-9.5-8.1,66.6-1.2-.1a182.34,182.34,0,0,0,137.5,62.6c98.1,0,177.9-78.6,180-176.2Z"/><path class="1a6bfaea-1212-42da-bd62-4be52d24ff22" d="M2080.55,291.7a5.91,5.91,0,0,0,4.6-2.6l37.4-60.3a5.59,5.59,0,0,0-9.5-5.9L2080,276l-13.4-18.7a5.59,5.59,0,0,0-9.1,6.5l18.3,25.5a5.64,5.64,0,0,0,4.6,2.3c0,.2.1.2.1.1Z"/><g class="4a1dee15-fd26-47a9-a8ff-a9a1bb6fd56f"><path class="6ce15ba2-eb78-4b5b-862f-bdf0cfdc47ab" d="M.71,109c18.61-3.81,45.26-5.92,70.64-5.92,39.34,0,64.72,7.19,82.49,23.26,14.38,12.69,22.42,32.15,22.42,54.14,0,37.65-23.69,62.61-53.72,72.76v1.27c22,7.61,35.11,27.92,41.88,57.53,9.31,39.76,16.07,67.26,22,78.26H148.34c-4.65-8-11-32.57-19-68.1-8.46-39.34-23.69-54.14-57.11-55.41H37.51V390.34H.71ZM37.51,238.9H75.16c39.34,0,64.3-21.57,64.3-54.14,0-36.8-26.65-52.87-65.57-53.3-17.77,0-30.46,1.69-36.38,3.38Z"/><path class="6ce15ba2-eb78-4b5b-862f-bdf0cfdc47ab" d="M249.43,294.74c.85,50.34,33,71.06,70.22,71.06,26.65,0,42.72-4.65,56.68-10.58l6.34,26.65c-13.11,5.92-35.53,12.69-68.1,12.69-63,0-100.67-41.46-100.67-103.21s36.38-110.4,96-110.4c66.83,0,84.6,58.8,84.6,96.44a140.42,140.42,0,0,1-1.27,17.34Zm109.13-26.65C359,244.4,348.84,207.6,307,207.6c-37.65,0-54.14,34.69-57.11,60.49Z"/><path class="6ce15ba2-eb78-4b5b-862f-bdf0cfdc47ab" d="M586.56,382.73c-9.73,5.08-31.3,11.84-58.8,11.84-61.76,0-101.94-41.88-101.94-104.48,0-63,43.15-108.71,110-108.71,22,0,41.45,5.5,51.61,10.58l-8.46,28.76c-8.88-5.08-22.84-9.73-43.15-9.73-47,0-72.33,34.69-72.33,77.41,0,47.38,30.46,76.56,71.06,76.56,21.15,0,35.11-5.5,45.68-10.15Z"/><path class="6ce15ba2-eb78-4b5b-862f-bdf0cfdc47ab" d="M651.27,185.61l44.84,121c4.65,13.54,9.73,29.61,13.11,41.88h.85c3.81-12.27,8-27.92,13.11-42.72l40.61-120.13h39.34L747.29,331.54c-26.65,70.22-44.84,106.17-70.22,128.17-18.19,16.07-36.38,22.42-45.68,24.11l-9.31-31.3a98.46,98.46,0,0,0,32.57-18.19c10.15-8,22.84-22.42,31.3-41.45,1.69-3.81,3-6.77,3-8.88s-.85-5.08-2.54-9.73L610.66,185.61Z"/><path class="6ce15ba2-eb78-4b5b-862f-bdf0cfdc47ab" d="M978.67,382.73c-9.73,5.08-31.3,11.84-58.8,11.84-61.76,0-101.94-41.88-101.94-104.48,0-63,43.15-108.71,110-108.71,22,0,41.45,5.5,51.61,10.58l-8.46,28.76c-8.88-5.08-22.84-9.73-43.15-9.73-47,0-72.33,34.69-72.33,77.41,0,47.38,30.46,76.56,71.06,76.56,21.15,0,35.11-5.5,45.68-10.15Z"/><path class="6ce15ba2-eb78-4b5b-862f-bdf0cfdc47ab" d="M1022.24,90h37.22V390.34h-37.22Z"/><path class="6ce15ba2-eb78-4b5b-862f-bdf0cfdc47ab" d="M1142.79,294.74c.85,50.34,33,71.06,70.22,71.06,26.65,0,42.72-4.65,56.68-10.58l6.34,26.65c-13.11,5.92-35.53,12.69-68.1,12.69-63,0-100.67-41.46-100.67-103.21s36.38-110.4,96-110.4c66.83,0,84.6,58.8,84.6,96.44a140.42,140.42,0,0,1-1.27,17.34Zm109.13-26.65c.42-23.69-9.73-60.49-51.61-60.49-37.65,0-54.14,34.69-57.11,60.49Z"/><path class="6ce15ba2-eb78-4b5b-862f-bdf0cfdc47ab" d="M1372.05,105.24v285.1h-36.8V105.24Z"/><path class="6ce15ba2-eb78-4b5b-862f-bdf0cfdc47ab" d="M1436.35,109a527.16,527.16,0,0,1,78.26-5.92c52.88,0,90.52,12.27,115.48,35.53,25.38,23.27,40.19,56.26,40.19,102.37,0,46.53-14.38,84.6-41,110.83-26.65,26.65-70.64,41-126.05,41a594.19,594.19,0,0,1-66.83-3.38Zm36.8,252.11c9.31,1.69,22.84,2.12,37.22,2.12,78.68,0,121.4-44,121.4-121,.42-67.26-37.65-110-115.48-110-19,0-33.42,1.69-43.15,3.81Z"/></g></g></g></svg>