<svg id="a8c4ddce-11fb-4b44-8990-c8ef377eb1dc" data-name="Layer 1" xmlns="http://www.w3.org/2000/svg" viewBox="0 0 2643.26 633.06"><defs><style>.\35 61af583-d98f-442c-84d2-06f32a2bea37,.\37 25afa78-8477-4a13-b838-f1a5df483798,.dd5cbd62-5174-4cf7-b4b3-ce5f79fb6edc{fill:#0d9953;stroke-miterlimit:10;}.\35 61af583-d98f-442c-84d2-06f32a2bea37{stroke:#fff;stroke-width:2.83px;}.\37 25afa78-8477-4a13-b838-f1a5df483798,.dd5cbd62-5174-4cf7-b4b3-ce5f79fb6edc{stroke:#000;}.\37 25afa78-8477-4a13-b838-f1a5df483798{stroke-width:0.71px;}.dd5cbd62-5174-4cf7-b4b3-ce5f79fb6edc{font-size:423px;stroke-width:1.42px;font-family:MyriadPro-Regular, Myriad Pro;}.dae382e3-a150-4abb-8f54-3b363b8c85b5{letter-spacing:0em;}.\30 49583ae-b8ae-4155-bd93-582486f2ffe0{letter-spacing:0.02em;}.\36 10da551-8e32-40e9-bce8-4f240bc16f63{letter-spacing:-0.01em;}</style></defs><title>icon-recycleid2</title><path d="M2030.41,236.93a15,15,0,0,0,15-15V90.53h131.4a15,15,0,0,0,0-30h-146.4a15,15,0,0,0-15,15v146.4A15,15,0,0,0,2030.41,236.93Z"/><path d="M2512.41,60.53H2366a15,15,0,0,0,0,30h131.4v131.4a15,15,0,1,0,30,0V75.53A15,15,0,0,0,2512.41,60.53Z"/><path d="M2512.41,396.13a15,15,0,0,0-15,15v131.4H2366a15,15,0,0,0,0,30h146.4a15,15,0,0,0,15-15V411.13A15,15,0,0,0,2512.41,396.13Z"/><path d="M2176.81,542.53h-131.4V411.13a15,15,0,1,0-30,0v146.4a15,15,0,0,0,15,15h146.4a15,15,0,0,0,0-30Z"/><path class="561af583-d98f-442c-84d2-06f32a2bea37" d="M2299.31,182.53l-47.9-44.9a188.51,188.51,0,0,1,20-1.1,180,180,0,0,1,179.4,165.2c.1,1.2-5.4,1.9-5.9,2.4l-47.4,47.4-42.3-44.5a84.42,84.42,0,0,0-83.8-74.8,89.21,89.21,0,0,0-11.6.8l39.8-42.5a5.68,5.68,0,0,0-.3-8Zm-163,174.3a5.72,5.72,0,0,1,4.2-1.1l61.5,8.6a83.78,83.78,0,0,1-14.8-47.8c0-34.2,12.9-72,42.1-85.2a28.1,28.1,0,0,0,4.9-3.5l52-40.9-47.5-45.9a12.67,12.67,0,0,1-1.1-1.3,180.11,180.11,0,0,0-112.2,282.2l8.6-61.4a6.05,6.05,0,0,1,2.3-3.7Zm269.7,8.8a5.51,5.51,0,0,1-4,1.6,6,6,0,0,1-4-1.6l-42.5-42.5a84.33,84.33,0,0,1-143,53.8,4.84,4.84,0,0,1-1.7,0l-67.6-9.5-8.1,66.6-1.2-.1a182.34,182.34,0,0,0,137.5,62.6c98.1,0,177.9-78.6,180-176.2Z"/><path class="725afa78-8477-4a13-b838-f1a5df483798" d="M2262,352.23a5.91,5.91,0,0,0,4.6-2.6l37.4-60.3a5.59,5.59,0,1,0-9.5-5.9l-33,53.1-13.4-18.7a5.59,5.59,0,1,0-9.1,6.5l18.3,25.5a5.64,5.64,0,0,0,4.6,2.3c0,.2.1.2.1.1Z"/><text class="dd5cbd62-5174-4cf7-b4b3-ce5f79fb6edc" transform="translate(96.01 444.84)"><tspan class="dae382e3-a150-4abb-8f54-3b363b8c85b5">R</tspan><tspan x="229.26" y="0">e</tspan><tspan class="049583ae-b8ae-4155-bd93-582486f2ffe0" x="441.18" y="0">c</tspan><tspan class="610da551-8e32-40e9-bce8-4f240bc16f63" x="638.29" y="0">y</tspan><tspan x="833.3" y="0">cleID</tspan></text></svg>