<?xml version="1.0" ?>
<svg data-name="Layer 1" id="Layer_1" viewBox="0 0 512 512" xmlns="http://www.w3.org/2000/svg">
  <defs>
    <style>
      .cls-1 {
        fill: none;
        stroke: #083b44;
        stroke-linecap: round;
        stroke-linejoin: round;
        stroke-width: 20px;
      }
    </style>
  </defs>
  <title/>
  <path class="cls-1" d="M186.06,208.69H325.94a0,0,0,0,1,0,0V364.81a19.42,19.42,0,0,1-19.42,19.42h-101a19.42,19.42,0,0,1-19.42-19.42V208.69A0,0,0,0,1,186.06,208.69Z"/>
  <rect class="cls-1" height="39.77" rx="13.01" ry="13.01" width="192" x="160" y="168.91"/>
  <path class="cls-1" d="M219,164.8a37,37,0,1,1,74.06,0"/>
  <line class="cls-1" x1="221.71" x2="221.71" y1="259.89" y2="320.23"/>
  <line class="cls-1" x1="254.63" x2="254.63" y1="259.89" y2="320.23"/>
  <line class="cls-1" x1="287.54" x2="287.54" y1="259.89" y2="320.23"/>
</svg>